<svg xmlns="http://www.w3.org/2000/svg" xmlns:xlink="http://www.w3.org/1999/xlink" width="300" height="240" viewBox="0 0 300 240">
    <defs>
        <path id="a" d="M59.512 31.426c0 17.14-13.275 31.034-29.652 31.034C13.484 62.46.21 48.566.21 31.426S13.484.392 29.86.392c16.377 0 29.652 13.894 29.652 31.034"/>
        <path id="c" d="M0 .18h39.469v116.012H0z"/>
        <path id="e" d="M.559.235H3.12v4.887H.559z"/>
    </defs>
    <g fill="none" fill-rule="evenodd">
        <path fill="#CCE4F5" fill-rule="nonzero" d="M159.528 3.807C141.47-7.146 122.134 6.91 112.04 28.438c-10.104 21.528-14.16 40.06-55.189 31.795C15.812 51.968-2.255 74.21.224 110.607c2.479 36.406 45.01 112.842 157.717 107.187 112.708-5.655 146.552-79.907 141.594-113.838-4.959-33.93-67.163-25.54-91.616-53.632-24.454-28.092-35.45-38.677-48.39-46.517z" opacity=".75"/>
        <text fill="#0059A3" font-family="Helvetica-Bold, Helvetica" font-size="40" font-weight="bold">
            <tspan x="175.651" y="176.346">1</tspan> <tspan x="175.651" y="224.346">4</tspan>
        </text>
        <path fill="#E4EFF6" d="M134.265 209.131c-7.397.022-14.793.2-22.177 1.026-2.784.31-5.51.995-8.3 1.271-5.574.551-11.048 1.58-16.641 2.054-4.504.382-9.028.607-13.519 1.092-4.21.455-8.872.35-13.05-.4-3.094-.557-6.2-.87-9.242-1.762-3.403-.999-7.099-1.713-10.643-1.687-5.055.037-9.978.041-14.815 1.804-1.698.62-3.777 1.636-5.066 2.935-2.952 2.974-3.352 10.393-.404 13.477 4.964 5.19 15.56 7.228 22.518 7.324 7.625.105 15.032-.464 22.669-.798 7.095-.31 14.173-.753 21.281-.737 14.516.032 29.034 0 43.525-.975 13.614-.915 27.261-.6 40.905-.6 13.991 0 27.888.11 41.778 1.978 6.052.814 12.218 1.099 18.3 1.669 5.447.51 10.682-.01 16.107-.482 4.556-.396 9.081-1.572 13.221-3.559 3.276-1.573 9.117-6.46 10.122-10.214 2.817-10.525-39.696-10.272-46.223-10.248-7.303.026-14.662.267-21.959-.012-3.069-.118-6.093-.72-9.089-1.38-2.983-.659-5.99-.491-9.015-.768-12.618-1.152-25.263-.984-37.921-.984-4.12 0-8.24-.036-12.362-.024"/>
        <path fill="#FFFFFE" d="M76.452 215.104H188.71V95.602H76.452z"/>
        <path fill="#255579" d="M188.71 95.602H76.452V76.559c0-3.782 2.853-6.85 6.372-6.85h99.514c3.519 0 6.372 3.068 6.372 6.85v19.043z"/>
        <path fill="#133557" d="M166.452 81.162c0 3.025 2.382 5.477 5.322 5.477s5.323-2.452 5.323-5.477c0-3.025-2.383-5.477-5.323-5.477-2.94 0-5.322 2.452-5.322 5.477"/>
        <path fill="#12406D" d="M172.258 84.647c1.604 0 2.903-1.436 2.903-3.208V66.943c0-1.772-1.3-3.209-2.903-3.209-1.604 0-2.903 1.437-2.903 3.21v14.495c0 1.772 1.3 3.208 2.903 3.208"/>
        <path fill="#133557" d="M128.71 81.162c0 3.025 2.383 5.477 5.322 5.477 2.94 0 5.323-2.452 5.323-5.477 0-3.025-2.383-5.477-5.323-5.477-2.94 0-5.322 2.452-5.322 5.477"/>
        <path fill="#12406D" d="M134.516 84.647c1.604 0 2.903-1.436 2.903-3.208V66.943c0-1.772-1.3-3.209-2.903-3.209s-2.903 1.437-2.903 3.21v14.495c0 1.772 1.3 3.208 2.903 3.208"/>
        <path fill="#143454" d="M90.968 81.162c0 3.025 2.383 5.477 5.323 5.477 2.94 0 5.322-2.452 5.322-5.477 0-3.025-2.383-5.477-5.322-5.477-2.94 0-5.323 2.452-5.323 5.477"/>
        <path fill="#12406D" d="M96.774 84.647c1.604 0 2.903-1.436 2.903-3.208V66.943c0-1.772-1.3-3.209-2.903-3.209s-2.903 1.437-2.903 3.21v14.495c0 1.772 1.3 3.208 2.903 3.208"/>
        <path fill="#D1E7F5" d="M150.562 137.845v.578h22.664v-23.9H150v23.9h.562v-.578h.562V115.68h20.978v21.588h-21.54v.578h.562-.562M122.497 137.845v.578h22.664v-23.9h-23.226v23.9h.562v-.578h.562V115.68h20.978v21.588h-21.54v.578h.562-.562M93.465 137.845v.578h22.664v-23.9H92.903v23.9h.562v-.578h.562V115.68h20.978v21.588h-21.54v.578h.562-.562M122.497 166.725v.578h22.664v-23.9h-23.226v23.9h.562v-.578h.562v-22.166h20.978v21.587h-21.54v.579h.562-.562"/>
        <path fill="#E8F5FE" d="M93.871 166.307h21.29v-22.905h-21.29z"/>
        <path stroke="#FB9C15" stroke-width="2" d="M97.742 155.575l4.529 6.749 12.89-16.93"/>
        <path fill="#D1E7F5" d="M122.497 195.605v.578h22.664v-23.9h-23.226v23.9h.562v-.578h.562v-22.166h20.978v21.587h-21.54v.579h.562-.562M93.465 195.605v.578h22.664v-23.9H92.903v23.9h.562v-.578h.562v-22.166h20.978v21.587h-21.54v.579h.562-.562"/>
        <path fill="#EC963B" d="M176.129 143.402h10.645v-6.97H176.13z"/>
        <path fill="#EBB744" d="M188.787 138.423h-13.704c-1.56 0-2.825-1.338-2.825-2.987 0-1.65 1.265-2.988 2.825-2.988h13.704c1.56 0 2.826 1.337 2.826 2.988 0 1.65-1.265 2.987-2.826 2.987"/>
        <path fill="#FB9C15" d="M231.29 172.78c0 25.574-19.713 46.307-44.032 46.307-24.319 0-44.032-20.733-44.032-46.307 0-25.575 19.713-46.307 44.032-46.307 24.319 0 44.032 20.732 44.032 46.307"/>
        <g transform="translate(151.935 146.39)">
            <mask id="b" fill="#fff">
                <use xlink:href="#a"/>
            </mask>
            <path fill="#FCFAF8" d="M31.66 62.404L3.628 16.944C7.382 9.511 13.933 3.867 21.814 1.547l32.417 47.561c-5.034 7.586-13.219 12.71-22.571 13.295M56.17 45.752L28.23.438a28.921 28.921 0 0 1 4.924.143l25.648 37.63a31.757 31.757 0 0 1-2.631 7.541" mask="url(#b)"/>
        </g>
        <path fill="#53498B" d="M183.871 177.261h-2.903V161.19c0-1.023.65-1.853 1.451-1.853.802 0 1.452.83 1.452 1.853v16.072"/>
        <path fill="#373D6D" d="M185.806 177.76c0 2.474-1.733 4.48-3.87 4.48-2.138 0-3.871-2.006-3.871-4.48 0-2.476 1.733-4.482 3.87-4.482 2.138 0 3.871 2.006 3.871 4.482"/>
        <path fill="#FB9C15" d="M214.839 177.76c0 19.524-14.948 35.352-33.387 35.352-18.44 0-33.387-15.828-33.387-35.352 0-19.525 14.947-35.353 33.387-35.353 18.439 0 33.387 15.828 33.387 35.353"/>
        <path fill="#FFF" d="M223.548 172.283c0 21.45-16.464 38.837-36.774 38.837-20.31 0-36.774-17.388-36.774-38.837 0-21.45 16.464-38.839 36.774-38.839 20.31 0 36.774 17.388 36.774 38.839"/>
        <text fill="#0059A3" font-family="Helvetica-Bold, Helvetica" font-size="20" font-weight="bold">
            <tspan x="164.094" y="195">Days</tspan>
        </text>
        <path fill="#F0AC87" d="M244.262 208.058l-8.31 6.248-.26-.36 5.7-11.567 2.87 5.68"/>
        <g fill="#E3520B">
            <path d="M245.376 208.529c.083.622.005 1.271-.233 1.774-.158.332-.392.631-.697.822l-2.034 1.277-2.898 1.817c-.912.572-1.7 1.369-2.814 1.505-.579.07-2.644.267-3.056-.375-.15-.233-.077-.559.115-.724 1.759-.655 3.74-1.954 4.82-2.92 2.88-2.308 2.229-2.645 6.039-4.924l.397.628c.188.332.308.72.361 1.12"/>
            <path d="M245.01 210.09l.427 5.102-.8.067-1.335-4.861z"/>
        </g>
        <path fill="#12406D" d="M246.826 153.134l-7.795 20.015c-1.374 2.039-.352 2.874.086 5.42l6.108 28.198-5.879 1.588c-5.785-20.686-8.857-31.633-9.215-32.843-.539-1.814-.574-4.008.172-5.996l4.06-22.034 11.438 4.44 1.025 1.212z"/>
        <path fill="#F0AC87" d="M233.621 209.257l-7.76 5.321-.21-.305 5.771-9.848 2.2 4.832"/>
        <path fill="#E3520B" d="M234.848 210.083c.035.542-.08 1.107-.334 1.546-.168.29-.405.55-.699.718l-1.966 1.118-2.8 1.592c-.88.502-1.663 1.197-2.7 1.32-.54.063-2.463.241-2.8-.316-.123-.203-.035-.486.154-.631 1.67-.577 3.588-1.714 4.65-2.558 2.816-2.02 2.237-2.311 5.91-4.307l.325.545c.151.288.237.626.26.973"/>
        <path fill="#E3520B" d="M234.015 210.87l-.447 4.664-.499.016-.17-4.343 1.116-.338"/>
        <path fill="#286B9E" d="M244.514 145.631c-.36.137 1.795 5.923 1.94 6.468 2.163 8.188-4.16 14.243-7.24 21.084-1.291 2.867-1.55 3.712-2.247 6.776-.701 3.077-.37 4.696-.837 7.838-.152 1.01-1.067 20.357-1.988 20.503l-5.242.84c.154-7.992-.355-26.224-.006-35.408.016-.415.074-.828.166-1.23 1.049-4.584 1.452-7.466 2.488-11.293.347-1.85 1.09-3.344 1.77-5.251.318-1.08 1.658-3.152 1.313-5.065-.154-.217 9.743-5.218 9.883-5.262"/>
        <g>
            <path fill="#E3520B" d="M224.985 143.944l13.868-19.967-1.217-1.157c-.677-.646-1.689-.969-2.784-1.01-2.452-.093-4.726 1.3-6.085 4.65l-8.108 14.717 4.326 2.767"/>
            <path fill="#12406D" d="M236.367 98.528s-7.216-2.166-4.085 19.666c.114.79-.475 1.585-.332 2.438a1.336 1.336 0 0 0 1.255 1.12c2.682.1 5.745-.556 5.745-.556-.148-1.725-2.583-22.668-2.583-22.668"/>
            <path fill="#D38470" d="M239.802 121.983l-6.15-.215s1.773-5.364 1.404-7.422c.877.12 5.06-1.344 5.06-1.344l-.314 8.98z"/>
            <path fill="#EBA17F" d="M231.548 106.9c.043 2.38.786 6.536 2.682 8.108 1.675 1.39 4.394-.212 5.858-1.345 1.942-1.502 3.107-3.754 3.739-6.17.168-4.825-2.337-8.829-5.597-8.943-2.73-.095-5.02 2.282-6.055 4.778-.47 1.134-.65 2.346-.627 3.572"/>
            <path fill="#ED6C0D" d="M249.196 155.262l-1.673-28.15c-.062-.999-.338-1.932-.79-2.659-1.23-1.983-4.69-5.988-7.145-6.074 0 0-1.444 1.426-4.42.794-.356.203-3.23 7.112-3.629 8.004-2.492 5.562 1.426 3.804 2.407 15.316-.263 3.628-.59 8.101-.979 13.419 10.819-.343 16.228-.56 16.23-.65z"/>
            <path fill="#12406D" d="M236.393 104.342c-.249.267-1.072 2.146-4.675 2.121-.47-2.229.143-8.7 7.309-7.845 4.35 1.008 6.729 2.85 8.03 11.016.155.976.189 1.972.083 2.955-.27 2.522-.811 4.415-1.725 6.23-.315.628-.516 1.314-.53 2.018-.012.555.098.925.517 1.285.596.986-2.864 1.3-5.621.141a1.021 1.021 0 0 1-.591-1.172c.351-1.539.642-4.616 1.086-7.36.408-2.528 1.023-4.755.197-5.66-.34-.16-1.687-.48-2.865-1.402-.414-.325-.82-1.1-1.215-2.327z"/>
            <path fill="#FA8B10" d="M240.38 152.82c1.38-.742 2.32-2.155 2.605-3.749l3.564-19.892c.36-2.015-.908-3.95-2.835-4.32-1.927-.371-3.782.96-4.143 2.976l-3.935 18.82-13.65-1.56-.563 4.004 14.574 3.772a4.713 4.713 0 0 0 1.98.518 4.715 4.715 0 0 0 2.403-.57z"/>
            <path fill="#FA8B10" d="M240.38 152.82c1.38-.742 2.32-2.155 2.605-3.749l3.564-19.892c.36-2.015-.908-3.95-2.835-4.32-1.927-.371-3.782.96-4.143 2.976l-3.935 18.82-13.65-1.56-.563 4.004 14.574 3.772a4.713 4.713 0 0 0 1.98.518 4.715 4.715 0 0 0 2.403-.57z"/>
            <path fill="#EBA17F" d="M221.13 147.19l2.653-2.714c.595-.651.884-1.32.82-2.636-.068-1.457-1.26-2.263-2.061-1.386l-.99 1.082c-.171.187-.265.484-.253.796l-.161 4.606c-.05.223-.053.307-.009.253z"/>
        </g>
        <path fill="#EBA17F" d="M215.834 147.508l3.363 1.655c.793.357 1.497.41 2.668-.104 1.296-.568 1.62-2.006.553-2.486l-1.317-.593c-.229-.103-.53-.093-.808.026l-4.228 1.424c-.218.027-.295.053-.231.078z"/>
        <text fill="#0059A3" font-family="Helvetica-Bold, Helvetica" font-size="34" font-weight="bold">
            <tspan x="168.833" y="176.322">14</tspan>
        </text>
        <g>
            <path fill="#000" d="M43.23 133.444l-.77 3.59.444 15.063-1.162 9.372-.13 2.846 1.876-.043 1.028-12.261-1.028-14.8z"/>
            <path fill="#2C5288" d="M42.083 142.407l-.152 2.987.331-.27c.004 0-.183-2.72-.179-2.717"/>
            <g transform="translate(31.935 118.506)">
                <mask id="d" fill="#fff">
                    <use xlink:href="#c"/>
                </mask>
                <path fill="#205C8C" d="M39.469 21.75L36.86 8.58l-.007-.002c-.287-.785-1.353-3.034-4.322-3.816L20.92.323c-.002-.025-.004-.05-.008-.076-.001-.014.003-.027.003-.04L20.841.18l-.149.056-.147-.056-.075.027c0 .013.005.026.003.04l-.009.076L8.098 4.79c-2.969.783-4.034 3.032-4.322 3.817l-.007.001L.09 29.184a5.648 5.648 0 0 0 1.015 4.354s6.423-5.974 7.78-7.231l.117-2.605c-.003-.001.14 2.37.138 2.37-.001 0-.095.086-.255.235l-.942 21.046-.238 10.25 1.149 58.59 4.994-.51 6.346-57.405 4.02 57.914 4.995-.509 4.07-58.057c.03-.424.266-20.546.256-20.97 0 0-.992-5.448-.908-12.662.026-2.178 6.786-2.244 6.843-2.244" mask="url(#d)"/>
            </g>
            <path fill="#000" d="M42.198 167.803l-.202-.005c.014.002.094.003.202.005"/>
            <path fill="#205C8C" d="M49.04 236.362l-3.626-2.337h-4.87s-1.194 2.337-.78 4.98h12.494s-.207-2.338-3.217-2.643"/>
            <path fill="#C39276" d="M54.403 113.527l-6.984 1.517 1.664 8.209c.012.062.036.119.05.18.009.047.006.095.016.143.4 1.97 2.272 3.233 4.182 2.818 1.727-.376 2.882-1.996 2.792-3.76a3.6 3.6 0 0 0-.056-.899l-1.664-8.208z"/>
            <path fill="#205C8C" d="M65.83 236.362l-5.05-2.337h-4.844s-1.068 2.337-.696 4.98h13.47s-.185-2.338-2.88-2.643"/>
            <path fill="#C39276" d="M56.729 105.018l-12.828 1.62.77 6.18c.22 1.925 2.38 2.402 4.123 3.672 1.327.968 2.076 3.026 3.503 2.845 3.302-.418 5.665-3.505 5.279-6.898l-.847-7.419z"/>
            <path fill="#12406D" d="M48.507 101.197s-5.75-.07-5.125 5.42l.549 4.802s.592 3.874 2.687 5.709c.343.3 1.747 1.112 2.032.897l-1.673-4.128s-1.781.411-2.169-2.986c-.142-1.242.336-1.336.713-1.384.509-.063.98.673.98.673l.954-.121-.216-1.894-.004-.014.036.009s-.285-1.936 1.67-2.183l7.788-.984s.368-.067.67-.722c.896-1.947-.75-4.123-2.824-3.86l-6.068.766z"/>
            <path fill="#12406D" d="M52.943 112.975c-1.114.14-2.342 1.24-2.212 2.388l1.915-.241c1.114-.14 1.911-1.186 1.78-2.334l-1.483.187z"/>
            <path fill="#12406D" d="M55.679 112.63l-1.484.187c.131 1.148 1.14 1.965 2.255 1.824l1.484-.187c-.131-1.149-1.141-1.965-2.255-1.825"/>
            <path fill="#12406D" d="M55.993 114.507c-.39.468-.76.687-1.315.757-1.249.158-1.9-.351-1.9-.351l-1.906.24c-1.215-.625-3.07-2.18-3.5-5.942l-1.512-.249 1.362 6.653c.113.312 1.67 4.474 5.549 3.984 0 0 5.777.233 4.814-5.293l-1.592.2z"/>
            <path fill="#000" d="M62.903 143.402l.968-.324-.264-6.646z"/>
            <path fill="#FFF" d="M53.226 167.285l.354.018c.5-16.811.616-39.599.614-39.834l-.892.009c.003.234.306 23.012-.076 39.807"/>
            <path fill="#FFF" d="M55.711 119.502s.098 4.772-2.485 7.934l2.283 3.02s1.616-2.95 2.03-3.951c.991-2.4.276-4.433.276-4.433l-2.104-2.57zM45.484 121.807s.208 1.79 1.717 4.42c1.446 2.522 3.015 4.23 3.015 4.23l2.042-3.037c-2.598-3.037-4.616-7.918-4.616-7.918l-2.158 2.305z"/>
            <path fill="#333" d="M53.226 156.349H67.75l6.765-19.917H59.991z"/>
            <path fill="#C39276" d="M72.845 142.407h-3.433c-.388 0-.702.445-.702.996 0 .549.314.995.702.995h3.433c.389 0 .703-.446.703-.995 0-.55-.314-.996-.703-.996"/>
            <path fill="#C39276" d="M72.845 144.398h-3.433c-.388 0-.702.446-.702.997 0 .549.314.995.702.995h3.433c.389 0 .703-.446.703-.995 0-.551-.314-.997-.703-.997"/>
            <path fill="#C39276" d="M71.877 145.394h-3.433c-.388 0-.702.446-.702.996s.314.996.702.996h3.433c.39 0 .704-.447.704-.996 0-.55-.315-.996-.704-.996"/>
            <path fill="#C39276" d="M71.783 147.386h-2.275c-.44 0-.798.446-.798.996s.357.996.798.996h2.275c.44 0 .798-.446.798-.996s-.357-.996-.798-.996"/>
            <path fill="#C39276" d="M71.842 143.402l-2.165 6.971 3.08-1.81.791-2.58-.23-2z"/>
            <path fill="#ECF4F8" d="M54.194 136.725l3.025 7.673.846-.294-3.026-7.672z"/>
            <path fill="#C39276" d="M50.087 145.855l-1.7 4.518 3.073-1.18c.39.907 2.523.6 2.523.6l1.311-.16 1.803-5.865-3.114-.366-3.896 2.453z"/>
            <path fill="#205C8C" d="M40.458 144.398l-7.555 7.665 1.5.73c1.16.565 2.47.714 3.721.423l13.166-3.062-1.2-5.29-9.632-.466z"/>
            <path fill="#FFF" d="M48.387 144.735l.956 5.638 1.947-.336-.955-5.639z"/>
        </g>
    </g>
</svg>
